HIERARCHY
ROOT Hips
{
	OFFSET 0.000000 0.000000 0.000000
	CHANNELS 6 Xposition Yposition Zposition Zrotation Yrotation Xrotation 
	JOINT LowerBack
	{
		OFFSET 0.000000 0.000000 0.000000
		CHANNELS 3 Zrotation Yrotation Xrotation
		JOINT Spine
		{
			OFFSET 0.028270 2.035590 -0.193380
			CHANNELS 3 Zrotation Yrotation Xrotation
			JOINT Spine1
			{
				OFFSET 0.056720 2.048850 -0.042750
				CHANNELS 3 Zrotation Yrotation Xrotation
				JOINT Neck
				{
					OFFSET 0.000000 0.000000 0.000000
					CHANNELS 3 Zrotation Yrotation Xrotation
					JOINT Neck1
					{
						OFFSET -0.054170 1.746240 0.172020
						CHANNELS 3 Zrotation Yrotation Xrotation
						JOINT Head
						{
							OFFSET 0.104070 1.761360 -0.123970
							CHANNELS 3 Zrotation Yrotation Xrotation
							End Site
							{
								OFFSET 0.000000 0.000000 0.000000
							}
						}
					}
				}
				JOINT LeftShoulder
				{
					OFFSET 0.000000 0.000000 0.000000
					CHANNELS 3 Zrotation Yrotation Xrotation
					JOINT LeftArm
					{
						OFFSET 3.362410 1.200890 -0.311210
						CHANNELS 3 Zrotation Yrotation Xrotation
						JOINT LeftForeArm
						{
							OFFSET 4.983000 -0.000000 -0.000000
							CHANNELS 3 Zrotation Yrotation Xrotation
							JOINT LeftHand
							{
								OFFSET 3.483560 -0.000000 -0.000000
								CHANNELS 3 Zrotation Yrotation Xrotation
								JOINT LeftFingerBase
								{
									OFFSET 0.000000 0.000000 0.000000
									CHANNELS 3 Zrotation Yrotation Xrotation
									JOINT LeftHandIndex1
									{
										OFFSET 0.715260 -0.000000 -0.000000
										CHANNELS 3 Zrotation Yrotation Xrotation
										End Site
										{
											OFFSET 0.000000 0.000000 0.000000
										}
									}
								}
								JOINT LThumb
								{
									OFFSET 0.000000 0.000000 0.000000
									CHANNELS 3 Zrotation Yrotation Xrotation
									End Site
									{
										OFFSET 0.000000 0.000000 0.000000
									}
								}
							}
						}
					}
				}
				JOINT RightShoulder
				{
					OFFSET 0.000000 0.000000 0.000000
					CHANNELS 3 Zrotation Yrotation Xrotation
					JOINT RightArm
					{
						OFFSET -3.136600 1.374050 -0.404650
						CHANNELS 3 Zrotation Yrotation Xrotation
						JOINT RightForeArm
						{
							OFFSET -5.241900 -0.000000 -0.000000
							CHANNELS 3 Zrotation Yrotation Xrotation
							JOINT RightHand
							{
								OFFSET -3.444170 -0.000000 -0.000000
								CHANNELS 3 Zrotation Yrotation Xrotation
								JOINT RightFingerBase
								{
									OFFSET 0.000000 0.000000 0.000000
									CHANNELS 3 Zrotation Yrotation Xrotation
									JOINT RightHandIndex1
									{
										OFFSET -0.622530 -0.000000 -0.000000
										CHANNELS 3 Zrotation Yrotation Xrotation
										End Site
										{
											OFFSET 0.000000 0.000000 0.000000
										}
									}
								}
								JOINT RThumb
								{
									OFFSET 0.000000 0.000000 0.000000
									CHANNELS 3 Zrotation Yrotation Xrotation
									End Site
									{
										OFFSET 0.000000 0.000000 0.000000
									}
								}
							}
						}
					}
				}
			}
		}
	}
}
}
MOTION
Frames: 6
Frame Time: 0.008333
2.830599 16.868978 1.546878 -51.048051 -66.778513 50.964809 14.760193 -3.239107 8.172392 1.613417 -3.505049 -1.901185 -8.416985 -3.586781 -1.784249 12.308368 -2.595905 -1.491233 -4.414610 -0.353674 1.452416 0.000000 0.000000 0.000000 -3.538500 -8.383815 1.934320 -64.956999 -17.066300 3.315478 -2.026628 -35.790830 -0.022624 7.535703 -3.962418 -0.276615 -0.057478 0.210662 0.000000 0.000000 0.000000 0.000000 0.000000 0.000000 0.000000 19.021776 -4.035678 2.136249 59.344654 6.092753 -17.936156 3.507591 10.905691 0.007313 -5.719657 9.192921 -0.471441 0.092548 -0.081144 0.000000 0.000000 0.000000 0.000000 0.000000 0.000000 0.000000 
2.845578 16.871510 1.556960 -51.414080 -66.806832 50.971671 14.803368 -3.207095 8.165589 1.624375 -3.480150 -1.886546 -8.384658 -3.557163 -1.700880 12.212899 -2.838523 -1.616720 -4.409343 -0.352739 1.420183 0.000000 0.000000 0.000000 -3.776234 -7.948660 1.908773 -65.633954 -17.272088 3.253430 -2.048973 -34.315214 -0.022701 7.681879 -3.650520 -0.260339 -0.056562 0.204040 0.000000 0.000000 0.000000 0.000000 0.000000 0.000000 0.000000 18.958336 -4.212231 2.056849 59.658016 6.249737 -17.464954 3.576234 11.297127 0.008255 -4.778622 8.766635 -0.376732 0.093527 -0.079282 0.000000 0.000000 0.000000 0.000000 0.000000 0.000000 0.000000 
2.861051 16.875948 1.567552 -51.844847 -66.843122 51.001619 14.848609 -3.183082 8.214777 1.636701 -3.458080 -1.861260 -8.351852 -3.530894 -1.626600 12.121664 -3.059444 -1.753546 -4.401698 -0.351525 1.384225 0.000000 0.000000 0.000000 -3.992087 -7.487526 1.890774 -66.303609 -17.414331 3.254045 -2.071497 -32.894453 -0.022582 7.778791 -3.354106 -0.242861 -0.055513 0.197632 0.000000 0.000000 0.000000 0.000000 0.000000 0.000000 0.000000 18.890120 -4.346220 1.982837 59.964028 6.343456 -16.683019 3.653941 11.832022 0.009231 -3.749541 8.335738 -0.282423 0.094048 -0.076527 0.000000 0.000000 0.000000 0.000000 0.000000 0.000000 0.000000 
2.876159 16.882518 1.577730 -52.286366 -66.911661 51.039851 14.858345 -3.162650 8.288374 1.642617 -3.436308 -1.833847 -8.320100 -3.505649 -1.568285 12.044636 -3.250009 -1.889779 -4.393207 -0.350312 1.348384 0.000000 0.000000 0.000000 -4.167151 -7.046275 1.879350 -66.955057 -17.417691 3.303894 -2.093430 -31.597054 -0.022203 7.812205 -3.092101 -0.225379 -0.054262 0.191314 0.000000 0.000000 0.000000 0.000000 0.000000 0.000000 0.000000 18.831641 -4.433437 1.916476 60.260318 6.356714 -15.639771 3.735023 12.505557 0.010159 -2.662681 7.924985 -0.192414 0.093939 -0.073032 0.000000 0.000000 0.000000 0.000000 0.000000 0.000000 0.000000 
2.889835 16.891305 1.586649 -52.687315 -67.031866 51.071020 14.800334 -3.142474 8.354253 1.635457 -3.413619 -1.810415 -8.290765 -3.479806 -1.522458 11.989802 -3.416371 -2.023962 -4.385125 -0.349257 1.313511 0.000000 0.000000 0.000000 -4.291166 -6.625499 1.871654 -67.576416 -17.267379 3.428022 -2.117855 -30.444463 -0.021521 7.776484 -2.881809 -0.209491 -0.053043 0.184987 0.000000 0.000000 0.000000 0.000000 0.000000 0.000000 0.000000 18.797904 -4.483691 1.855504 60.542820 6.294650 -14.378348 3.814368 13.301479 0.010974 -1.554999 7.554526 -0.109506 0.093143 -0.068954 0.000000 0.000000 0.000000 0.000000 0.000000 0.000000 0.000000 
2.900361 16.902526 1.593600 -52.988850 -67.209687 51.078812 14.652254 -3.120219 8.367212 1.610559 -3.391252 -1.799616 -8.265269 -3.454246 -1.485564 11.962618 -3.565465 -2.153656 -4.378900 -0.348562 1.281020 0.000000 0.000000 0.000000 -4.360406 -6.230832 1.864947 -68.155711 -16.936712 3.642894 -2.147415 -29.460295 -0.020495 7.662379 -2.731400 -0.195799 -0.052004 0.178480 0.000000 0.000000 0.000000 0.000000 0.000000 0.000000 0.000000 18.801789 -4.509452 1.796564 60.808052 6.156877 -12.963256 3.887906 14.196619 0.011648 -0.454413 7.244767 -0.034499 0.091641 -0.064489 0.000000 0.000000 0.000000 0.000000 0.000000 0.000000 0.000000 
